<svg width="32" height="32" viewBox="0 0 32 32" fill="none" xmlns="http://www.w3.org/2000/svg">
<path d="M12.6562 4.90625L11.875 5C11.875 5 8.37109 5.38281 5.8125 7.4375H5.78125L5.75 7.46875C5.17578 7.99609 4.92578 8.64453 4.53125 9.59375C4.13672 10.543 3.71484 11.7539 3.34375 13.0938C2.60156 15.7773 2 19.0273 2 22V22.25L2.125 22.5C3.05078 24.125 4.69531 25.1602 6.21875 25.875C7.74219 26.5898 9.05859 26.9688 9.96875 27L10.5625 27.0312L10.875 26.5L11.9688 24.5625C13.1289 24.8242 14.4648 25 16 25C17.5352 25 18.8711 24.8242 20.0312 24.5625L21.125 26.5L21.4375 27.0312L22.0312 27C22.9414 26.9688 24.2578 26.5898 25.7812 25.875C27.3047 25.1602 28.9492 24.125 29.875 22.5L30 22.25V22C30 19.0273 29.3984 15.7773 28.6562 13.0938C28.2852 11.7539 27.8633 10.543 27.4688 9.59375C27.0742 8.64453 26.8242 7.99609 26.25 7.46875L26.2188 7.4375H26.1875C23.6289 5.38281 20.125 5 20.125 5L19.3438 4.90625L19.0625 5.625C19.0625 5.625 18.7734 6.35547 18.5938 7.1875C17.4609 7.03516 16.5352 7 16 7C15.4648 7 14.5391 7.03516 13.4062 7.1875C13.2266 6.35547 12.9375 5.625 12.9375 5.625L12.6562 4.90625ZM11.2812 7.1875C11.3242 7.32812 11.3672 7.44922 11.4062 7.5625C10.1133 7.88281 8.73438 8.37109 7.46875 9.15625L8.53125 10.8438C11.125 9.23438 14.8516 9 16 9C17.1484 9 20.875 9.23438 23.4688 10.8438L24.5312 9.15625C23.2656 8.37109 21.8867 7.88281 20.5938 7.5625C20.6328 7.44922 20.6758 7.32812 20.7188 7.1875C21.6523 7.375 23.4336 7.80469 24.9062 8.96875C24.8984 8.97266 25.2812 9.55078 25.625 10.375C25.9766 11.2227 26.3672 12.3516 26.7188 13.625C27.3945 16.0664 27.9258 19.0391 27.9688 21.6562C27.3398 22.6172 26.1719 23.4844 24.9375 24.0625C23.8594 24.5664 23.0078 24.75 22.5 24.8438L22 24C22.2969 23.8906 22.5898 23.7695 22.8438 23.6562C24.3828 22.9805 25.2188 22.25 25.2188 22.25L23.9062 20.75C23.9062 20.75 23.3438 21.2656 22.0312 21.8438C20.7188 22.4219 18.7148 23 16 23C13.2852 23 11.2812 22.4219 9.96875 21.8438C8.65625 21.2656 8.09375 20.75 8.09375 20.75L6.78125 22.25C6.78125 22.25 7.61719 22.9805 9.15625 23.6562C9.41016 23.7695 9.70312 23.8906 10 24L9.5 24.8438C8.99219 24.75 8.14062 24.5664 7.0625 24.0625C5.82812 23.4844 4.66016 22.6172 4.03125 21.6562C4.07422 19.0391 4.60547 16.0664 5.28125 13.625C5.63281 12.3516 6.02344 11.2227 6.375 10.375C6.71875 9.55078 7.10156 8.97266 7.09375 8.96875C8.56641 7.80469 10.3477 7.375 11.2812 7.1875ZM12.5 14C11.7266 14 11.043 14.4414 10.625 15C10.207 15.5586 10 16.2461 10 17C10 17.7539 10.207 18.4414 10.625 19C11.043 19.5586 11.7266 20 12.5 20C13.2734 20 13.957 19.5586 14.375 19C14.793 18.4414 15 17.7539 15 17C15 16.2461 14.793 15.5586 14.375 15C13.957 14.4414 13.2734 14 12.5 14ZM19.5 14C18.7266 14 18.043 14.4414 17.625 15C17.207 15.5586 17 16.2461 17 17C17 17.7539 17.207 18.4414 17.625 19C18.043 19.5586 18.7266 20 19.5 20C20.2734 20 20.957 19.5586 21.375 19C21.793 18.4414 22 17.7539 22 17C22 16.2461 21.793 15.5586 21.375 15C20.957 14.4414 20.2734 14 19.5 14ZM12.5 16C12.5547 16 12.625 16.0195 12.75 16.1875C12.875 16.3555 13 16.6484 13 17C13 17.3516 12.875 17.6445 12.75 17.8125C12.625 17.9805 12.5547 18 12.5 18C12.4453 18 12.375 17.9805 12.25 17.8125C12.125 17.6445 12 17.3516 12 17C12 16.6484 12.125 16.3555 12.25 16.1875C12.375 16.0195 12.4453 16 12.5 16ZM19.5 16C19.5547 16 19.625 16.0195 19.75 16.1875C19.875 16.3555 20 16.6484 20 17C20 17.3516 19.875 17.6445 19.75 17.8125C19.625 17.9805 19.5547 18 19.5 18C19.4453 18 19.375 17.9805 19.25 17.8125C19.125 17.6445 19 17.3516 19 17C19 16.6484 19.125 16.3555 19.25 16.1875C19.375 16.0195 19.4453 16 19.5 16Z" fill="white"/>
</svg>
