<svg width="32" height="32" viewBox="0 0 32 32" fill="none" xmlns="http://www.w3.org/2000/svg">
<path d="M12 25.3333C5.33329 27.3333 5.33329 22 2.66663 21.3333M21.3333 29.3333V24.1733C21.3833 23.5375 21.2974 22.8984 21.0813 22.2984C20.8652 21.6984 20.5239 21.1512 20.08 20.6933C24.2666 20.2267 28.6666 18.64 28.6666 11.36C28.6663 9.49844 27.9502 7.70826 26.6666 6.36C27.2744 4.73134 27.2315 2.93113 26.5466 1.33333C26.5466 1.33333 24.9733 0.866667 21.3333 3.30667C18.2773 2.47843 15.0559 2.47843 12 3.30667C8.35996 0.866667 6.78663 1.33333 6.78663 1.33333C6.10179 2.93113 6.05882 4.73134 6.66663 6.36C5.37346 7.71827 4.65666 9.52462 4.66663 11.4C4.66663 18.6267 9.06663 20.2133 13.2533 20.7333C12.8146 21.1866 12.4763 21.7272 12.2604 22.3199C12.0444 22.9126 11.9557 23.5441 12 24.1733V29.3333" stroke="white" stroke-width="2" stroke-linecap="round" stroke-linejoin="round"/>
</svg>
