<svg viewBox="0 0 32 32" fill="none" xmlns="http://www.w3.org/2000/svg">
<path d="M11 25.3333C4.33332 27.3333 4.33332 22 1.66666 21.3333M20.3333 29.3333V24.1733C20.3833 23.5375 20.2974 22.8984 20.0813 22.2984C19.8652 21.6984 19.5239 21.1512 19.08 20.6933C23.2667 20.2267 27.6667 18.64 27.6667 11.36C27.6663 9.49844 26.9502 7.70826 25.6667 6.36C26.2745 4.73134 26.2315 2.93113 25.5467 1.33333C25.5467 1.33333 23.9733 0.866667 20.3333 3.30667C17.2773 2.47843 14.056 2.47843 11 3.30667C7.35999 0.866667 5.78666 1.33333 5.78666 1.33333C5.10182 2.93113 5.05885 4.73134 5.66666 6.36C4.37349 7.71827 3.65669 9.52462 3.66666 11.4C3.66666 18.6267 8.06666 20.2133 12.2533 20.7333C11.8147 21.1866 11.4763 21.7272 11.2604 22.3199C11.0445 22.9126 10.9557 23.5441 11 24.1733V29.3333" stroke="black" stroke-width="2" stroke-linecap="round" stroke-linejoin="round"/>
</svg>
