<svg width="32" height="32" viewBox="0 0 32 32" fill="none" xmlns="http://www.w3.org/2000/svg">
<path d="M21.3333 10.6667C23.455 10.6667 25.4899 11.5095 26.9902 13.0098C28.4905 14.5101 29.3333 16.5449 29.3333 18.6667V28H24V18.6667C24 17.9594 23.719 17.2811 23.2189 16.781C22.7188 16.281 22.0406 16 21.3333 16C20.6261 16 19.9478 16.281 19.4477 16.781C18.9476 17.2811 18.6666 17.9594 18.6666 18.6667V28H13.3333V18.6667C13.3333 16.5449 14.1762 14.5101 15.6765 13.0098C17.1768 11.5095 19.2116 10.6667 21.3333 10.6667V10.6667Z" stroke="white" stroke-width="2" stroke-linecap="round" stroke-linejoin="round"/>
<path d="M8.00002 12H2.66669V28H8.00002V12Z" stroke="white" stroke-width="2" stroke-linecap="round" stroke-linejoin="round"/>
<path d="M5.33335 8C6.80611 8 8.00002 6.80609 8.00002 5.33333C8.00002 3.86057 6.80611 2.66667 5.33335 2.66667C3.86059 2.66667 2.66669 3.86057 2.66669 5.33333C2.66669 6.80609 3.86059 8 5.33335 8Z" stroke="white" stroke-width="2" stroke-linecap="round" stroke-linejoin="round"/>
</svg>
