<svg width="33" height="33" viewBox="0 0 33 33" fill="none" xmlns="http://www.w3.org/2000/svg">
<g id="Moon">
<path id="Vector" d="M29.2771 18.4764C29.1488 18.3479 28.9879 18.2567 28.8118 18.2127C28.6356 18.1686 28.4507 18.1734 28.2771 18.2264C26.3703 18.8029 24.3428 18.8512 22.4107 18.3663C20.4786 17.8813 18.7143 16.8813 17.3057 15.4727C15.8972 14.0642 14.8971 12.2999 14.4122 10.3678C13.9273 8.43568 13.9756 6.40822 14.5521 4.50143C14.6056 4.32769 14.6107 4.14264 14.5669 3.9662C14.5231 3.78976 14.432 3.6286 14.3034 3.50005C14.1749 3.3715 14.0137 3.28042 13.8373 3.23662C13.6609 3.19281 13.4758 3.19793 13.3021 3.25143C10.6658 4.05899 8.35148 5.67743 6.68831 7.87643C5.23382 9.80751 4.34663 12.1059 4.12639 14.5134C3.90615 16.9209 4.3616 19.3421 5.44157 21.505C6.52154 23.668 8.18323 25.4869 10.24 26.7575C12.2967 28.0281 14.667 28.7 17.0846 28.6977C19.905 28.7064 22.6504 27.7895 24.8996 26.0877C27.0986 24.4245 28.717 22.1102 29.5246 19.4739C29.5774 19.3008 29.5823 19.1166 29.5388 18.941C29.4952 18.7653 29.4047 18.6047 29.2771 18.4764ZM23.6971 24.4902C21.579 26.0855 18.9559 26.862 16.3107 26.6768C13.6656 26.4916 11.1763 25.3571 9.30123 23.4822C7.42615 21.6073 6.29145 19.1181 6.10602 16.4729C5.92059 13.8278 6.69691 11.2046 8.29206 9.08643C9.33131 7.71401 10.6749 6.60149 12.2171 5.83643C12.1292 6.45297 12.0849 7.07492 12.0846 7.69768C12.0882 11.1444 13.459 14.4489 15.8962 16.8861C18.3334 19.3232 21.6379 20.694 25.0846 20.6977C25.7086 20.6975 26.3318 20.6532 26.9496 20.5652C26.1838 22.1076 25.0704 23.4512 23.6971 24.4902Z" fill="black"/>
</g>
</svg>
