<svg viewBox="0 0 32 32" fill="none" xmlns="http://www.w3.org/2000/svg">
<path d="M30.6667 4C29.3899 4.90064 27.9762 5.58948 26.48 6.04C25.677 5.11668 24.6098 4.46226 23.4227 4.16523C22.2357 3.86821 20.986 3.94293 19.8428 4.37927C18.6996 4.81561 17.7179 5.59254 17.0307 6.60496C16.3434 7.61738 15.9836 8.81645 16 10.04V11.3733C13.6569 11.4341 11.335 10.9144 9.24136 9.86059C7.14767 8.80677 5.3471 7.25151 4.00001 5.33333C4.00001 5.33333 -1.33332 17.3333 10.6667 22.6667C7.92071 24.5306 4.64955 25.4652 1.33334 25.3333C13.3333 32 28 25.3333 28 10C27.9988 9.6286 27.9631 9.25813 27.8933 8.89333C29.2541 7.55132 30.2144 5.85695 30.6667 4V4Z" stroke="black" stroke-width="2" stroke-linecap="round" stroke-linejoin="round"/>
</svg>
