<svg width="32" height="32" viewBox="0 0 32 32" fill="none" xmlns="http://www.w3.org/2000/svg">
<path d="M12.6562 5L11.875 5.09375C11.875 5.09375 8.37109 5.47656 5.8125 7.53125H5.78125L5.75 7.5625C5.17578 8.08984 4.92578 8.73828 4.53125 9.6875C4.13672 10.6367 3.71484 11.8477 3.34375 13.1875C2.60156 15.8711 2 19.1211 2 22.0938V22.3438L2.125 22.5938C3.05078 24.2188 4.69531 25.2539 6.21875 25.9688C7.74219 26.6836 9.05859 27.0625 9.96875 27.0938L10.5625 27.125L10.875 26.5938L11.9688 24.6562C13.1289 24.918 14.4648 25.0938 16 25.0938C17.5352 25.0938 18.8711 24.918 20.0312 24.6562L21.125 26.5938L21.4375 27.125L22.0312 27.0938C22.9414 27.0625 24.2578 26.6836 25.7812 25.9688C27.3047 25.2539 28.9492 24.2188 29.875 22.5938L30 22.3438V22.0938C30 19.1211 29.3984 15.8711 28.6562 13.1875C28.2852 11.8477 27.8633 10.6367 27.4688 9.6875C27.0742 8.73828 26.8242 8.08984 26.25 7.5625L26.2188 7.53125H26.1875C23.6289 5.47656 20.125 5.09375 20.125 5.09375L19.3438 5L19.0625 5.71875C19.0625 5.71875 18.7734 6.44922 18.5938 7.28125C17.4609 7.12891 16.5352 7.09375 16 7.09375C15.4648 7.09375 14.5391 7.12891 13.4062 7.28125C13.2266 6.44922 12.9375 5.71875 12.9375 5.71875L12.6562 5ZM11.2812 7.28125C11.3242 7.42188 11.3672 7.54297 11.4062 7.65625C10.1133 7.97656 8.73438 8.46484 7.46875 9.25L8.53125 10.9375C11.125 9.32812 14.8516 9.09375 16 9.09375C17.1484 9.09375 20.875 9.32812 23.4688 10.9375L24.5312 9.25C23.2656 8.46484 21.8867 7.97656 20.5938 7.65625C20.6328 7.54297 20.6758 7.42188 20.7188 7.28125C21.6523 7.46875 23.4336 7.89844 24.9062 9.0625C24.8984 9.06641 25.2812 9.64453 25.625 10.4688C25.9766 11.3164 26.3672 12.4453 26.7188 13.7188C27.3945 16.1602 27.9258 19.1328 27.9688 21.75C27.3398 22.7109 26.1719 23.5781 24.9375 24.1562C23.8594 24.6602 23.0078 24.8438 22.5 24.9375L22 24.0938C22.2969 23.9844 22.5898 23.8633 22.8438 23.75C24.3828 23.0742 25.2188 22.3438 25.2188 22.3438L23.9062 20.8438C23.9062 20.8438 23.3438 21.3594 22.0312 21.9375C20.7188 22.5156 18.7148 23.0938 16 23.0938C13.2852 23.0938 11.2812 22.5156 9.96875 21.9375C8.65625 21.3594 8.09375 20.8438 8.09375 20.8438L6.78125 22.3438C6.78125 22.3438 7.61719 23.0742 9.15625 23.75C9.41016 23.8633 9.70312 23.9844 10 24.0938L9.5 24.9375C8.99219 24.8438 8.14062 24.6602 7.0625 24.1562C5.82812 23.5781 4.66016 22.7109 4.03125 21.75C4.07422 19.1328 4.60547 16.1602 5.28125 13.7188C5.63281 12.4453 6.02344 11.3164 6.375 10.4688C6.71875 9.64453 7.10156 9.06641 7.09375 9.0625C8.56641 7.89844 10.3477 7.46875 11.2812 7.28125ZM12.5 14.0938C11.7266 14.0938 11.043 14.5352 10.625 15.0938C10.207 15.6523 10 16.3398 10 17.0938C10 17.8477 10.207 18.5352 10.625 19.0938C11.043 19.6523 11.7266 20.0938 12.5 20.0938C13.2734 20.0938 13.957 19.6523 14.375 19.0938C14.793 18.5352 15 17.8477 15 17.0938C15 16.3398 14.793 15.6523 14.375 15.0938C13.957 14.5352 13.2734 14.0938 12.5 14.0938ZM19.5 14.0938C18.7266 14.0938 18.043 14.5352 17.625 15.0938C17.207 15.6523 17 16.3398 17 17.0938C17 17.8477 17.207 18.5352 17.625 19.0938C18.043 19.6523 18.7266 20.0938 19.5 20.0938C20.2734 20.0938 20.957 19.6523 21.375 19.0938C21.793 18.5352 22 17.8477 22 17.0938C22 16.3398 21.793 15.6523 21.375 15.0938C20.957 14.5352 20.2734 14.0938 19.5 14.0938ZM12.5 16.0938C12.5547 16.0938 12.625 16.1133 12.75 16.2812C12.875 16.4492 13 16.7422 13 17.0938C13 17.4453 12.875 17.7383 12.75 17.9062C12.625 18.0742 12.5547 18.0938 12.5 18.0938C12.4453 18.0938 12.375 18.0742 12.25 17.9062C12.125 17.7383 12 17.4453 12 17.0938C12 16.7422 12.125 16.4492 12.25 16.2812C12.375 16.1133 12.4453 16.0938 12.5 16.0938ZM19.5 16.0938C19.5547 16.0938 19.625 16.1133 19.75 16.2812C19.875 16.4492 20 16.7422 20 17.0938C20 17.4453 19.875 17.7383 19.75 17.9062C19.625 18.0742 19.5547 18.0938 19.5 18.0938C19.4453 18.0938 19.375 18.0742 19.25 17.9062C19.125 17.7383 19 17.4453 19 17.0938C19 16.7422 19.125 16.4492 19.25 16.2812C19.375 16.1133 19.4453 16.0938 19.5 16.0938Z" fill="black"/>
</svg>
