<svg width="32" height="32" viewBox="0 0 32 32" fill="none" xmlns="http://www.w3.org/2000/svg">
<g clip-path="url(#clip0_8_46)">
<path d="M15.9999 6.02384e-05C7.16354 6.02384e-05 0 7.16352 0 16.0001C0 24.8368 7.16354 32.0001 15.9999 32.0001C24.8372 32.0001 32 24.8371 32 16.0001C32 7.164 24.8372 0.000780256 15.9996 0.000780256L15.9999 -0.000179768V6.02384e-05ZM23.3374 23.0769C23.0509 23.5468 22.4357 23.6961 21.9656 23.4074C18.2091 21.1127 13.4799 20.5931 7.91042 21.8656C7.37378 21.9877 6.83882 21.6515 6.71642 21.1146C6.59354 20.5777 6.92858 20.0427 7.46666 19.9206C13.5615 18.528 18.7894 19.1276 23.0069 21.705C23.4771 21.9935 23.6261 22.6067 23.3374 23.0769ZM25.2958 18.7203C24.9346 19.3071 24.1666 19.4924 23.5801 19.1314C19.2792 16.4878 12.7236 15.7221 7.63658 17.2666C6.97682 17.4658 6.2801 17.094 6.07994 16.4354C5.88122 15.7757 6.25322 15.0804 6.91178 14.8797C12.7224 13.1166 19.9462 13.9706 24.8852 17.0057C25.4717 17.3669 25.657 18.1349 25.2961 18.7208V18.7205L25.2958 18.7203ZM25.4641 14.1837C20.3072 11.1207 11.7994 10.8392 6.87602 12.3335C6.08546 12.5733 5.24929 12.1271 5.00977 11.3363C4.77025 10.5452 5.21617 9.70974 6.00722 9.4695C11.659 7.75369 21.0543 8.08514 26.9914 11.6099C27.704 12.032 27.9373 12.9503 27.5149 13.6605C27.0944 14.3716 26.1735 14.6061 25.4648 14.1837H25.4641Z" fill="black"/>
</g>
<defs>
<clipPath id="clip0_8_46">
<rect width="32" height="32" fill="white"/>
</clipPath>
</defs>
</svg>
