<svg width="31" height="31" viewBox="0 0 31 31" fill="none" xmlns="http://www.w3.org/2000/svg">
<g id="Vector">
<path id="Vector_2" d="M14.0845 4.69769V1.69769C14.0845 1.43248 14.1899 1.17812 14.3774 0.990586C14.565 0.80305 14.8193 0.697693 15.0845 0.697693C15.3498 0.697693 15.6041 0.80305 15.7916 0.990586C15.9792 1.17812 16.0845 1.43248 16.0845 1.69769V4.69769C16.0845 4.96291 15.9792 5.21726 15.7916 5.4048C15.6041 5.59234 15.3498 5.69769 15.0845 5.69769C14.8193 5.69769 14.565 5.59234 14.3774 5.4048C14.1899 5.21726 14.0845 4.96291 14.0845 4.69769ZM23.0845 15.6977C23.0845 17.2799 22.6153 18.8267 21.7363 20.1423C20.8572 21.4578 19.6078 22.4832 18.146 23.0887C16.6842 23.6942 15.0757 23.8527 13.5238 23.544C11.972 23.2353 10.5465 22.4734 9.42768 21.3545C8.30886 20.2357 7.54693 18.8103 7.23825 17.2584C6.92957 15.7066 7.088 14.098 7.6935 12.6362C8.299 11.1744 9.32438 9.92499 10.64 9.04594C11.9556 8.16688 13.5023 7.69769 15.0845 7.69769C17.2056 7.70001 19.239 8.54361 20.7388 10.0434C22.2386 11.5432 23.0822 13.5767 23.0845 15.6977ZM21.0845 15.6977C21.0845 14.511 20.7326 13.351 20.0734 12.3643C19.4141 11.3776 18.477 10.6085 17.3806 10.1544C16.2843 9.70029 15.0779 9.58147 13.914 9.81298C12.7501 10.0445 11.681 10.6159 10.8419 11.4551C10.0028 12.2942 9.43133 13.3633 9.19982 14.5272C8.96831 15.691 9.08713 16.8974 9.54126 17.9938C9.99538 19.0902 10.7644 20.0272 11.7511 20.6865C12.7378 21.3458 13.8978 21.6977 15.0845 21.6977C16.6753 21.696 18.2005 21.0634 19.3253 19.9385C20.4502 18.8136 21.0829 17.2885 21.0845 15.6977ZM6.37703 8.40519C6.56467 8.59283 6.81917 8.69825 7.08453 8.69825C7.3499 8.69825 7.60439 8.59283 7.79203 8.40519C7.97967 8.21755 8.08509 7.96306 8.08509 7.69769C8.08509 7.43233 7.97967 7.17783 7.79203 6.99019L5.79203 4.99019C5.60439 4.80255 5.3499 4.69714 5.08453 4.69714C4.81917 4.69714 4.56467 4.80255 4.37703 4.99019C4.18939 5.17783 4.08398 5.43233 4.08398 5.69769C4.08398 5.96306 4.18939 6.21755 4.37703 6.40519L6.37703 8.40519ZM6.37703 22.9902L4.37703 24.9902C4.18939 25.1778 4.08398 25.4323 4.08398 25.6977C4.08398 25.9631 4.18939 26.2176 4.37703 26.4052C4.56467 26.5928 4.81917 26.6982 5.08453 26.6982C5.3499 26.6982 5.60439 26.5928 5.79203 26.4052L7.79203 24.4052C7.88494 24.3123 7.95864 24.202 8.00893 24.0806C8.05921 23.9592 8.08509 23.8291 8.08509 23.6977C8.08509 23.5663 8.05921 23.4362 8.00893 23.3148C7.95864 23.1934 7.88494 23.0831 7.79203 22.9902C7.69912 22.8973 7.58882 22.8236 7.46743 22.7733C7.34604 22.723 7.21593 22.6971 7.08453 22.6971C6.95314 22.6971 6.82303 22.723 6.70164 22.7733C6.58024 22.8236 6.46994 22.8973 6.37703 22.9902ZM23.0845 8.69769C23.2159 8.6978 23.346 8.67202 23.4674 8.62183C23.5888 8.57164 23.6991 8.49803 23.792 8.40519L25.792 6.40519C25.9797 6.21755 26.0851 5.96306 26.0851 5.69769C26.0851 5.43233 25.9797 5.17783 25.792 4.99019C25.6044 4.80255 25.3499 4.69714 25.0845 4.69714C24.8192 4.69714 24.5647 4.80255 24.377 4.99019L22.377 6.99019C22.237 7.13005 22.1417 7.3083 22.103 7.50239C22.0644 7.69647 22.0842 7.89766 22.1599 8.08048C22.2357 8.26331 22.364 8.41954 22.5286 8.52941C22.6931 8.63928 22.8866 8.69785 23.0845 8.69769ZM23.792 22.9902C23.6044 22.8026 23.3499 22.6971 23.0845 22.6971C22.8192 22.6971 22.5647 22.8026 22.377 22.9902C22.1894 23.1778 22.084 23.4323 22.084 23.6977C22.084 23.9631 22.1894 24.2176 22.377 24.4052L24.377 26.4052C24.4699 26.4981 24.5802 26.5718 24.7016 26.6221C24.823 26.6724 24.9531 26.6982 25.0845 26.6982C25.2159 26.6982 25.346 26.6724 25.4674 26.6221C25.5888 26.5718 25.6991 26.4981 25.792 26.4052C25.8849 26.3123 25.9586 26.202 26.0089 26.0806C26.0592 25.9592 26.0851 25.8291 26.0851 25.6977C26.0851 25.5663 26.0592 25.4362 26.0089 25.3148C25.9586 25.1934 25.8849 25.0831 25.792 24.9902L23.792 22.9902ZM5.08453 15.6977C5.08453 15.4325 4.97918 15.1781 4.79164 14.9906C4.6041 14.8031 4.34975 14.6977 4.08453 14.6977H1.08453C0.819317 14.6977 0.564963 14.8031 0.377427 14.9906C0.18989 15.1781 0.0845337 15.4325 0.0845337 15.6977C0.0845337 15.9629 0.18989 16.2173 0.377427 16.4048C0.564963 16.5923 0.819317 16.6977 1.08453 16.6977H4.08453C4.34975 16.6977 4.6041 16.5923 4.79164 16.4048C4.97918 16.2173 5.08453 15.9629 5.08453 15.6977ZM15.0845 25.6977C14.8193 25.6977 14.565 25.803 14.3774 25.9906C14.1899 26.1781 14.0845 26.4325 14.0845 26.6977V29.6977C14.0845 29.9629 14.1899 30.2173 14.3774 30.4048C14.565 30.5923 14.8193 30.6977 15.0845 30.6977C15.3498 30.6977 15.6041 30.5923 15.7916 30.4048C15.9792 30.2173 16.0845 29.9629 16.0845 29.6977V26.6977C16.0845 26.4325 15.9792 26.1781 15.7916 25.9906C15.6041 25.803 15.3498 25.6977 15.0845 25.6977ZM29.0845 14.6977H26.0845C25.8193 14.6977 25.565 14.8031 25.3774 14.9906C25.1899 15.1781 25.0845 15.4325 25.0845 15.6977C25.0845 15.9629 25.1899 16.2173 25.3774 16.4048C25.565 16.5923 25.8193 16.6977 26.0845 16.6977H29.0845C29.3498 16.6977 29.6041 16.5923 29.7916 16.4048C29.9792 16.2173 30.0845 15.9629 30.0845 15.6977C30.0845 15.4325 29.9792 15.1781 29.7916 14.9906C29.6041 14.8031 29.3498 14.6977 29.0845 14.6977Z" fill="white"/>
</g>
</svg>
